<svg xmlns="http://www.w3.org/2000/svg" width="10" height="10" viewBox="0 0 10 10">
  <metadata><?xpacket begin="﻿" id="W5M0MpCehiHzreSzNTczkc9d"?>
<x:xmpmeta xmlns:x="adobe:ns:meta/" x:xmptk="Adobe XMP Core 5.6-c138 79.159824, 2016/09/14-01:09:01        ">
   <rdf:RDF xmlns:rdf="http://www.w3.org/1999/02/22-rdf-syntax-ns#">
      <rdf:Description rdf:about=""/>
   </rdf:RDF>
</x:xmpmeta>
                                                                                                    
                                                                                                    
                                                                                                    
                                                                                                    
                                                                                                    
                                                                                                    
                                                                                                    
                                                                                                    
                                                                                                    
                                                                                                    
                                                                                                    
                                                                                                    
                                                                                                    
                                                                                                    
                                                                                                    
                                                                                                    
                                                                                                    
                                                                                                    
                                                                                                    
                                                                                                    
                           
<?xpacket end="w"?></metadata>
<defs>
    <style>
      .cls-1 {
        fill-rule: evenodd;
      }
    </style>
  </defs>
  <path id="Forma_1" data-name="Forma 1" class="cls-1" d="M439.433,2004.6a4.914,4.914,0,0,0,1.637,1.03,5.947,5.947,0,0,0,2.109.37,6.8,6.8,0,0,0,2.353-.39c0.644-.24.09-1.42-0.382-1.23a4.857,4.857,0,0,1-1.881.33,4.435,4.435,0,0,1-1.548-.26,3.445,3.445,0,0,1-1.18-.72,3.309,3.309,0,0,1-.766-1.15,3.956,3.956,0,0,1-.277-1.53,4.048,4.048,0,0,1,.269-1.49,3.413,3.413,0,0,1,1.906-1.96,4.016,4.016,0,0,1,1.506-.28,4.8,4.8,0,0,1,1.409.2,2.874,2.874,0,0,1,1.075.6,2.768,2.768,0,0,1,.708.97,3.351,3.351,0,0,1,.253,1.36,3.455,3.455,0,0,1-.1.84,2.362,2.362,0,0,1-.261.66,1.311,1.311,0,0,1-.374.4,0.76,0.76,0,0,1-.619.11,0.541,0.541,0,0,1-.179-0.62,6.833,6.833,0,0,1,.154-0.8c0.09-.43.188-0.86,0.277-1.29,0.049-.23.106-0.47,0.155-0.7a0.488,0.488,0,0,0-.48-0.59H444.84a0.483,0.483,0,0,0-.472.35c-0.024.1-.049,0.18-0.049,0.18a1.307,1.307,0,0,0-1.36-.69,2.462,2.462,0,0,0-1.767.84c-0.041.05-.089,0.1-0.13,0.15a3.065,3.065,0,0,0-.538.96,3.4,3.4,0,0,0-.195,1.13,3.1,3.1,0,0,0,.138.93,2.255,2.255,0,0,0,.416.75,1.9,1.9,0,0,0,.676.5,2.178,2.178,0,0,0,.895.18,2.074,2.074,0,0,0,.676-0.11,2.588,2.588,0,0,0,.53-0.26,2.82,2.82,0,0,0,.325-0.27,1.276,1.276,0,0,0,.212.28,1.378,1.378,0,0,0,1.042.36,2.73,2.73,0,0,0,1.059-.21,2.569,2.569,0,0,0,.888-0.66,3.4,3.4,0,0,0,.594-1.07,4.329,4.329,0,0,0,.22-1.43,4.26,4.26,0,0,0-.407-1.91,3.968,3.968,0,0,0-1.091-1.36,4.692,4.692,0,0,0-1.548-.82,5.582,5.582,0,0,0-1.775-.28,5.4,5.4,0,0,0-2.011.38,5.346,5.346,0,0,0-1.645,1.05,5.032,5.032,0,0,0-1.116,1.59,4.918,4.918,0,0,0-.407,1.99,5.144,5.144,0,0,0,.375,2A4.635,4.635,0,0,0,439.433,2004.6Zm4.406-3.39a2.343,2.343,0,0,1-.253.62,1.408,1.408,0,0,1-.431.46,0.975,0.975,0,0,1-.6.17,0.648,0.648,0,0,1-.366-0.09,0.626,0.626,0,0,1-.236-0.25,1.119,1.119,0,0,1-.131-0.35,2.02,2.02,0,0,1-.04-0.36,2.51,2.51,0,0,1,.1-0.68,1.962,1.962,0,0,1,.277-0.61,1.66,1.66,0,0,1,.432-0.44,0.937,0.937,0,0,1,.529-0.15,0.746,0.746,0,0,1,.391.08,0.7,0.7,0,0,1,.236.22,1.022,1.022,0,0,1,.138.33,1.762,1.762,0,0,1,.049.42A2.957,2.957,0,0,1,443.839,2001.21Z" transform="translate(-438 -1996)"/>
</svg>
