<svg xmlns="http://www.w3.org/2000/svg" width="7.219" height="14" viewBox="0 0 7.219 14">
  <metadata><?xpacket begin="﻿" id="W5M0MpCehiHzreSzNTczkc9d"?>
<x:xmpmeta xmlns:x="adobe:ns:meta/" x:xmptk="Adobe XMP Core 5.6-c138 79.159824, 2016/09/14-01:09:01        ">
   <rdf:RDF xmlns:rdf="http://www.w3.org/1999/02/22-rdf-syntax-ns#">
      <rdf:Description rdf:about=""/>
   </rdf:RDF>
</x:xmpmeta>
                                                                                                    
                                                                                                    
                                                                                                    
                                                                                                    
                                                                                                    
                                                                                                    
                                                                                                    
                                                                                                    
                                                                                                    
                                                                                                    
                                                                                                    
                                                                                                    
                                                                                                    
                                                                                                    
                                                                                                    
                                                                                                    
                                                                                                    
                                                                                                    
                                                                                                    
                                                                                                    
                           
<?xpacket end="w"?></metadata>
<defs>
    <style>
      .cls-1 {
        fill: #fff;
        fill-rule: evenodd;
      }
    </style>
  </defs>
  <path id="Forma_1_копия" data-name="Forma 1 копия" class="cls-1" d="M70.834,0L69.1,0a3.124,3.124,0,0,0-3.21,3.445V5.034H64.143a0.279,0.279,0,0,0-.273.286v2.3a0.279,0.279,0,0,0,.273.286h1.745v5.808a0.28,0.28,0,0,0,.273.286h2.277a0.28,0.28,0,0,0,.273-0.286V7.907h2.04a0.279,0.279,0,0,0,.273-0.286v-2.3a0.293,0.293,0,0,0-.08-0.2,0.267,0.267,0,0,0-.193-0.084H68.711V3.687a0.8,0.8,0,0,1,.953-0.976h1.169a0.28,0.28,0,0,0,.273-0.286V0.288A0.279,0.279,0,0,0,70.834,0Z" transform="translate(-63.875)"/>
</svg>
