<svg xmlns="http://www.w3.org/2000/svg" width="13.75" height="14" viewBox="0 0 13.75 14">
  <metadata><?xpacket begin="﻿" id="W5M0MpCehiHzreSzNTczkc9d"?>
<x:xmpmeta xmlns:x="adobe:ns:meta/" x:xmptk="Adobe XMP Core 5.6-c138 79.159824, 2016/09/14-01:09:01        ">
   <rdf:RDF xmlns:rdf="http://www.w3.org/1999/02/22-rdf-syntax-ns#">
      <rdf:Description rdf:about=""/>
   </rdf:RDF>
</x:xmpmeta>
                                                                                                    
                                                                                                    
                                                                                                    
                                                                                                    
                                                                                                    
                                                                                                    
                                                                                                    
                                                                                                    
                                                                                                    
                                                                                                    
                                                                                                    
                                                                                                    
                                                                                                    
                                                                                                    
                                                                                                    
                                                                                                    
                                                                                                    
                                                                                                    
                                                                                                    
                                                                                                    
                           
<?xpacket end="w"?></metadata>
<defs>
    <style>
      .cls-1 {
        fill: #fff;
        fill-rule: evenodd;
      }
    </style>
  </defs>
  <path id="Forma_1_копия" data-name="Forma 1 копия" class="cls-1" d="M141.133,0H131.117a1.887,1.887,0,0,0-1.867,1.9V12.1a1.887,1.887,0,0,0,1.867,1.9h10.016A1.886,1.886,0,0,0,143,12.1V1.9A1.886,1.886,0,0,0,141.133,0Zm-5.008,10.42A3.131,3.131,0,1,1,139.2,7.289,3.107,3.107,0,0,1,136.125,10.42Zm5.711-5.442h-2.778a3.772,3.772,0,0,0-5.865,0h-2.779V2.26a1.244,1.244,0,0,1,1.231-1.253h8.96a1.243,1.243,0,0,1,1.231,1.253V4.978h0Zm-5.711.3A2.013,2.013,0,1,0,138.1,7.289,2,2,0,0,0,136.125,5.277Zm4.2-3.467h-1.19a0.5,0.5,0,0,0-.493.5V3.523a0.5,0.5,0,0,0,.493.5h1.19a0.5,0.5,0,0,0,.493-0.5V2.312A0.5,0.5,0,0,0,140.321,1.81Z" transform="translate(-129.25)"/>
</svg>
