<svg xmlns="http://www.w3.org/2000/svg" width="9.406" height="12.531" viewBox="0 0 9.406 12.531">
  <metadata><?xpacket begin="﻿" id="W5M0MpCehiHzreSzNTczkc9d"?>
<x:xmpmeta xmlns:x="adobe:ns:meta/" x:xmptk="Adobe XMP Core 5.6-c138 79.159824, 2016/09/14-01:09:01        ">
   <rdf:RDF xmlns:rdf="http://www.w3.org/1999/02/22-rdf-syntax-ns#">
      <rdf:Description rdf:about=""/>
   </rdf:RDF>
</x:xmpmeta>
                                                                                                    
                                                                                                    
                                                                                                    
                                                                                                    
                                                                                                    
                                                                                                    
                                                                                                    
                                                                                                    
                                                                                                    
                                                                                                    
                                                                                                    
                                                                                                    
                                                                                                    
                                                                                                    
                                                                                                    
                                                                                                    
                                                                                                    
                                                                                                    
                                                                                                    
                                                                                                    
                           
<?xpacket end="w"?></metadata>
<defs>
    <style>
      .cls-1 {
        fill: #fff;
        fill-rule: evenodd;
      }
    </style>
  </defs>
  <path id="Forma_1_копия" data-name="Forma 1 копия" class="cls-1" d="M5.755,8.808a2.84,2.84,0,0,0-1.406-.237H2.868v3.111H4.227a2.751,2.751,0,0,0,1.579-.274,1.625,1.625,0,0,0,.624-1.321A1.594,1.594,0,0,0,5.755,8.808ZM5.2,6.151a1.459,1.459,0,0,0,.5-1.132,1.316,1.316,0,0,0-.589-1.131,3.579,3.579,0,0,0-1.6-.182H2.868V6.443H3.721A2.308,2.308,0,0,0,5.2,6.151ZM5.088,14H0V1.477H5.559a2.9,2.9,0,0,1,3.1,2.889,2.663,2.663,0,0,1-1.774,2.7V7.105A2.833,2.833,0,0,1,9.41,10.2C9.41,12.025,8.192,14,5.088,14Z" transform="translate(0 -1.469)"/>
</svg>
